<svg width="28" height="28" viewBox="0 0 28 28" fill="none" xmlns="http://www.w3.org/2000/svg">
<g clip-path="url(#clip0_133_448)">
<path d="M27.076 19.0796L20.6325 24.8663C18.3797 26.887 15.4735 28.0011 12.4483 28.0011H0.583333C0.261333 28.0011 0 27.7398 0 27.4178C0 27.0958 0.261333 26.8345 0.583333 26.8345H12.4483C15.1853 26.8345 17.815 25.8276 19.8532 23.9983L26.2745 18.2338C26.9033 17.605 27.0247 16.6016 26.5347 15.9203C26.2232 15.4886 25.767 15.2273 25.2467 15.1853C24.738 15.1503 24.2317 15.3288 23.8665 15.6928L18.991 20.1355C18.4625 20.6698 17.7287 21.0023 16.9178 21.0023H11.0845C10.7625 21.0023 10.5012 20.741 10.5012 20.419C10.5012 20.097 10.7625 19.8356 11.0845 19.8356H16.9178C17.3845 19.8356 17.8092 19.6513 18.123 19.3526C18.1382 19.3351 18.1545 19.3176 18.172 19.3013L18.193 19.2826C18.487 18.97 18.6678 18.5488 18.6678 18.0856C18.6678 17.1208 17.8827 16.3356 16.9178 16.3356H10.0205C7.06067 16.3356 4.277 17.4883 2.18283 19.5813L1.00683 20.8203C0.786333 21.0571 0.415333 21.0641 0.183167 20.8425C-0.0513333 20.622 -0.0606667 20.2521 0.161 20.0188L1.3475 18.7693C3.67267 16.4441 6.74917 15.1701 10.0205 15.1701H16.9178C18.4298 15.1701 19.677 16.3263 19.8205 17.801L23.0615 14.8493C23.6472 14.2625 24.4802 13.9521 25.3412 14.0245C26.1952 14.0933 26.9745 14.5355 27.482 15.2401C28.3033 16.38 28.1295 18.032 27.0772 19.082L27.076 19.0796ZM5.838 1.89813C5.80183 1.3883 5.99083 0.886634 6.35483 0.521467C6.71883 0.1563 7.2135 -0.0245329 7.73267 0.00463376C11.4275 0.2648 13.6208 1.65663 14.5833 4.4998C15.547 1.65663 17.7392 0.2648 21.4352 0.00463376C21.9438 -0.0198662 22.4467 0.1563 22.8118 0.521467C23.1758 0.885467 23.366 1.3883 23.3287 1.8993C22.974 6.92997 20.5228 9.17697 15.1667 9.32513V11.0833C15.1667 11.4053 14.9053 11.6666 14.5833 11.6666C14.2613 11.6666 14 11.4053 14 11.0833V9.32513C8.64383 9.17697 6.19267 6.92997 5.838 1.89813ZM15.1748 8.15847C19.8812 8.02197 21.8563 6.20663 22.1643 1.8153C22.1772 1.64263 22.1118 1.47113 21.987 1.3463C21.8715 1.2308 21.7187 1.16663 21.56 1.16663C21.546 1.16663 21.5332 1.16663 21.5192 1.16897C17.1267 1.47813 15.3125 3.45213 15.1748 8.15847ZM7.00233 1.8153C7.3115 6.2078 9.2855 8.02197 13.9918 8.15963C13.8553 3.4533 12.04 1.47813 7.64867 1.17013C7.63467 1.17013 7.62067 1.1678 7.60667 1.1678C7.448 1.1678 7.294 1.23313 7.17967 1.34747C7.05483 1.4723 6.9895 1.6438 7.00233 1.8153Z" fill="white"/>
</g>
<defs>
<clipPath id="clip0_133_448">
<rect width="28" height="28" fill="white"/>
</clipPath>
</defs>
</svg>
