<svg width="28" height="28" viewBox="0 0 28 28" fill="none" xmlns="http://www.w3.org/2000/svg">
<path d="M28 13.4167C28 11.165 26.1683 9.33333 23.9167 9.33333H23.3333V5.25C23.3333 4.928 23.072 4.66667 22.75 4.66667C22.428 4.66667 22.1667 4.928 22.1667 5.25V9.33333H17.8232L13.5322 2.4675C12.5662 0.922833 10.9025 0 9.08133 0H6.41783C4.81017 0 3.50117 1.309 3.50117 2.91667V9.33333H2.91783C1.31017 9.33333 0.00116667 10.6423 0.00116667 12.25V13.4167C0.00116667 13.7387 0.2625 14 0.5845 14C0.9065 14 1.16783 13.7387 1.16783 13.4167V12.25C1.16783 11.2852 1.953 10.5 2.91783 10.5H23.9167C25.5243 10.5 26.8333 11.809 26.8333 13.4167C26.8333 14.0443 26.6257 14.665 26.2488 15.169L23.2307 19.2348C22.568 18.872 21.8073 18.6667 21 18.6667C18.4263 18.6667 16.3333 20.7597 16.3333 23.3333C16.3333 25.907 18.4263 28 21 28C23.5737 28 25.6667 25.907 25.6667 23.3333C25.6667 21.9858 25.0927 20.7702 24.1757 19.9173L27.1822 15.8667C27.7095 15.1643 28 14.2952 28 13.4167ZM4.66667 2.91667C4.66667 1.95183 5.45183 1.16667 6.41667 1.16667H9.08017C10.4965 1.16667 11.7915 1.88417 12.5428 3.08583L16.4477 9.33333H4.66667V2.91667ZM24.5 23.3333C24.5 25.263 22.9297 26.8333 21 26.8333C19.0703 26.8333 17.5 25.263 17.5 23.3333C17.5 21.4037 19.0703 19.8333 21 19.8333C22.9297 19.8333 24.5 21.4037 24.5 23.3333ZM13.4167 20.4167H12.2173C12.1053 19.4052 11.704 18.48 11.0997 17.7252L11.949 16.8758C12.1765 16.6483 12.1765 16.2785 11.949 16.051C11.7215 15.8235 11.3517 15.8235 11.1242 16.051L10.2748 16.9003C9.52 16.296 8.59367 15.8947 7.58333 15.7827V14.5833C7.58333 14.2613 7.322 14 7 14C6.678 14 6.41667 14.2613 6.41667 14.5833V15.7827C5.40517 15.8947 4.48 16.296 3.72517 16.9003L2.87583 16.051C2.64833 15.8235 2.2785 15.8235 2.051 16.051C1.8235 16.2785 1.8235 16.6483 2.051 16.8758L2.90033 17.7252C2.296 18.48 1.89467 19.4063 1.78267 20.4167H0.583333C0.261333 20.4167 0 20.678 0 21C0 21.322 0.261333 21.5833 0.583333 21.5833H1.78267C1.89467 22.5948 2.296 23.52 2.90033 24.2748L2.051 25.1242C1.8235 25.3517 1.8235 25.7215 2.051 25.949C2.16533 26.0633 2.31467 26.1193 2.464 26.1193C2.61333 26.1193 2.76267 26.0622 2.877 25.949L3.72633 25.0997C4.48117 25.704 5.4075 26.1053 6.41783 26.2173V27.4167C6.41783 27.7387 6.67917 28 7.00117 28C7.32317 28 7.5845 27.7387 7.5845 27.4167V26.2173C8.596 26.1053 9.52117 25.704 10.276 25.0997L11.1253 25.949C11.2397 26.0633 11.389 26.1193 11.5383 26.1193C11.6877 26.1193 11.837 26.0622 11.9513 25.949C12.1788 25.7215 12.1788 25.3517 11.9513 25.1242L11.102 24.2748C11.7063 23.52 12.1077 22.5937 12.2197 21.5833H13.419C13.741 21.5833 14.0023 21.322 14.0023 21C14.0023 20.678 13.741 20.4167 13.419 20.4167H13.4167ZM7 25.0833C4.74833 25.0833 2.91667 23.2517 2.91667 21C2.91667 18.7483 4.74833 16.9167 7 16.9167C9.25167 16.9167 11.0833 18.7483 11.0833 21C11.0833 23.2517 9.25167 25.0833 7 25.0833Z" fill="white"/>
</svg>
