<svg width="28" height="28" viewBox="0 0 28 28" fill="none" xmlns="http://www.w3.org/2000/svg">
<path d="M27.7878 2.84783C27.5673 2.52583 27.2021 2.33333 26.8113 2.33333H25.1196C25.458 1.8445 25.6668 1.2425 25.6668 0.583333C25.6668 0.261333 25.4055 0 25.0835 0C24.7615 0 24.5001 0.261333 24.5001 0.583333C24.5001 1.54817 23.827 2.33333 22.9998 2.33333H15.5005C14.6733 2.33333 14.0001 1.54817 14.0001 0.583333C14.0001 0.261333 13.7388 0 13.4168 0C13.0948 0 12.8335 0.261333 12.8335 0.583333C12.8335 1.2425 13.0423 1.8445 13.3806 2.33333H11.689C11.2981 2.33333 10.9341 2.52583 10.7125 2.84783C10.4873 3.17683 10.4395 3.59567 10.583 3.969C11.0076 5.06683 12.1731 5.83333 13.418 5.83333H13.516L13.9453 8.16667H7.58462C6.30945 8.16667 5.15562 8.6415 4.24562 9.39983C4.20129 9.422 0.196122 12.9827 0.196122 12.9827C-0.0442117 13.1973 -0.0652117 13.566 0.149455 13.8063C0.264955 13.9347 0.424788 14.0012 0.584622 14.0012C0.723455 14.0012 0.862288 13.9522 0.973122 13.853L2.42212 12.558C2.37546 12.8392 2.33462 13.1238 2.33462 13.419V25.0857C2.33462 26.6933 3.64246 28.0023 5.25129 28.0023C6.45179 28.0023 7.48429 27.272 7.93112 26.2337C11.2083 26.1438 13.152 24.808 13.859 22.169H15.7513C16.0721 22.169 16.3346 22.4303 16.3346 22.7523V25.0857C16.3346 26.6933 17.6425 28.0023 19.2513 28.0023C20.8601 28.0023 22.168 26.6933 22.168 25.0857V19.2523C22.168 18.9303 21.9066 18.669 21.5846 18.669C21.2626 18.669 21.0013 18.9303 21.0013 19.2523V25.0857C21.0013 26.0505 20.2161 26.8357 19.2513 26.8357C18.2865 26.8357 17.5013 26.0505 17.5013 25.0857V22.7523C17.5013 21.7875 16.7161 21.0023 15.7513 21.0023H8.75129C7.78646 21.0023 7.00129 21.7875 7.00129 22.7523V25.0857C7.00129 26.0505 6.21612 26.8357 5.25129 26.8357C4.28646 26.8357 3.50129 26.0505 3.50129 25.0857V13.419C3.50129 13.314 3.52462 13.216 3.53279 13.1122C4.38329 13.6745 5.37846 14.0023 6.41795 14.0023C9.11296 14.0023 11.3145 11.9537 11.6085 9.33567H14.1588L14.7095 12.3317C14.2731 12.7563 14.0001 13.3467 14.0001 14.0023C14.0001 15.2892 15.0466 16.3357 16.3335 16.3357H22.1668C23.4536 16.3357 24.5001 15.2892 24.5001 14.0023C24.5001 13.3467 24.2271 12.7563 23.7908 12.3317L24.9855 5.83567H25.0835C26.3271 5.83567 27.4926 5.06917 27.9173 3.9725C28.062 3.59917 28.0141 3.17917 27.789 2.85133L27.7878 2.84783ZM8.75012 22.1667H12.6526C12.0448 24.0228 10.6203 24.9317 8.16679 25.0553V22.75C8.16679 22.428 8.42929 22.1667 8.75012 22.1667ZM6.41679 12.8333C5.45312 12.8333 4.53962 12.4775 3.80929 11.8673C4.42062 10.3822 5.88012 9.33333 7.58346 9.33333H10.4406C10.1548 11.3073 8.46779 12.8333 6.41679 12.8333ZM22.1668 15.1667H16.3335C15.6895 15.1667 15.1668 14.6428 15.1668 14C15.1668 13.3572 15.6895 12.8333 16.3335 12.8333H22.1668C22.8108 12.8333 23.3335 13.3572 23.3335 14C23.3335 14.6428 22.8108 15.1667 22.1668 15.1667ZM25.0835 4.66667H24.5001C24.219 4.66667 23.9775 4.86733 23.9261 5.145L22.7128 11.7378C22.5366 11.6958 22.3558 11.6667 22.1668 11.6667H16.3335C16.1445 11.6667 15.9636 11.6947 15.7875 11.7378L14.5741 5.145C14.5228 4.8685 14.2813 4.66667 14.0001 4.66667H13.4168C12.6678 4.66667 11.9176 4.186 11.689 3.5L26.83 3.549C26.5838 4.186 25.8325 4.66667 25.0835 4.66667ZM15.7501 7C15.7501 6.356 16.2728 5.83333 16.9168 5.83333C17.5608 5.83333 18.0835 6.356 18.0835 7C18.0835 7.644 17.5608 8.16667 16.9168 8.16667C16.2728 8.16667 15.7501 7.644 15.7501 7ZM20.4168 7C20.4168 6.356 20.9395 5.83333 21.5835 5.83333C22.2275 5.83333 22.7501 6.356 22.7501 7C22.7501 7.644 22.2275 8.16667 21.5835 8.16667C20.9395 8.16667 20.4168 7.644 20.4168 7Z" fill="white"/>
</svg>
