<svg width="42" height="42" viewBox="0 0 42 42" fill="none" xmlns="http://www.w3.org/2000/svg">
<path fill-rule="evenodd" clip-rule="evenodd" d="M28.5539 30.8381C28.6816 30.8381 28.8065 30.876 28.9128 30.9469C29.019 31.0179 29.1018 31.1188 29.1507 31.2369C29.1996 31.3549 29.2124 31.4848 29.1874 31.6101C29.1625 31.7354 29.101 31.8505 29.0106 31.9409C28.9203 32.0312 28.8052 32.0927 28.6799 32.1176C28.5546 32.1426 28.4247 32.1298 28.3066 32.0809C28.1886 32.032 28.0877 31.9492 28.0167 31.843C27.9457 31.7367 27.9079 31.6118 27.9079 31.4841C27.9078 31.3992 27.9245 31.3152 27.957 31.2368C27.9895 31.1584 28.0371 31.0872 28.097 31.0272C28.157 30.9672 28.2283 30.9197 28.3066 30.8872C28.385 30.8547 28.469 30.838 28.5539 30.8381ZM17.7873 30.8381C17.915 30.8381 18.0399 30.876 18.1462 30.9469C18.2524 31.0179 18.3352 31.1188 18.3841 31.2369C18.433 31.3549 18.4458 31.4848 18.4208 31.6101C18.3959 31.7354 18.3344 31.8505 18.244 31.9409C18.1537 32.0312 18.0386 32.0927 17.9133 32.1176C17.788 32.1426 17.6581 32.1298 17.54 32.0809C17.422 32.032 17.3211 31.9492 17.2501 31.843C17.1791 31.7367 17.1413 31.6118 17.1413 31.4841C17.1412 31.3992 17.1579 31.3152 17.1904 31.2368C17.2229 31.1584 17.2704 31.0872 17.3304 31.0272C17.3904 30.9672 17.4617 30.9197 17.54 30.8872C17.6184 30.8547 17.7024 30.838 17.7873 30.8381ZM15.9655 23.9603L16.6115 30.136H16.3746C16.1656 30.1339 15.963 30.2079 15.8045 30.3442C15.6461 30.4805 15.5426 30.6698 15.5133 30.8767L14.751 36.3806H11V26.5443C12.5407 25.479 14.2089 24.6108 15.9655 23.9603ZM30.3411 23.943C32.2274 24.5656 33.9918 25.5097 35.5564 26.7336C35.976 27.0622 36.3173 27.48 36.5557 27.9567C36.794 28.4334 36.9234 28.9571 36.9346 29.49V36.3806H31.5556L30.8019 30.8768C30.7727 30.6698 30.6692 30.4806 30.5107 30.3443C30.3522 30.208 30.1496 30.134 29.9406 30.136H29.7037L30.3411 23.943ZM23.1533 22.5994C24.872 22.6039 26.5824 22.8371 28.2395 23.2928L27.5375 30.136H18.7692L18.0672 23.3057C19.7266 22.8598 21.4352 22.6225 23.1533 22.5994ZM5.71145 15.614C5.88277 15.614 6.04706 15.6821 6.1682 15.8032C6.28933 15.9244 6.3574 16.0887 6.35742 16.26V21.738C6.35613 22.0337 6.46543 22.3191 6.66385 22.5382C6.86227 22.7574 7.13546 22.8944 7.42976 22.9224V16.26C7.42976 16.0887 7.49782 15.9244 7.61897 15.8032C7.74011 15.6821 7.90443 15.614 8.07576 15.614C8.24708 15.614 8.4114 15.6821 8.53254 15.8032C8.65369 15.9244 8.72175 16.0887 8.72175 16.26V22.9353H9.87164V16.26C9.87164 16.0887 9.9397 15.9244 10.0608 15.8032C10.182 15.6821 10.3463 15.614 10.5176 15.614C10.689 15.614 10.8533 15.6821 10.9744 15.8032C11.0956 15.9244 11.1636 16.0887 11.1636 16.26V22.9224H11.2024C11.3579 22.9224 11.5119 22.8918 11.6556 22.8323C11.7993 22.7727 11.9299 22.6855 12.0398 22.5755C12.1498 22.4655 12.2371 22.335 12.2966 22.1913C12.3561 22.0476 12.3867 21.8936 12.3867 21.7381V16.26C12.3867 16.0887 12.4548 15.9244 12.5759 15.8032C12.6971 15.6821 12.8614 15.614 13.0327 15.614C13.204 15.614 13.3684 15.6821 13.4895 15.8032C13.6107 15.9244 13.6787 16.0887 13.6787 16.26V21.7423C13.6793 22.068 13.6157 22.3907 13.4916 22.6919C13.3675 22.9931 13.1852 23.2669 12.9553 23.4977C12.7253 23.7285 12.4522 23.9117 12.1514 24.0368C11.8506 24.162 11.5282 24.2267 11.2024 24.2273H10.1387V38.8054H8.40308V24.2144H7.54176C6.88536 24.2132 6.25618 23.9519 5.79203 23.4878C5.32788 23.0236 5.06661 22.3945 5.06543 21.7381V16.26C5.06546 16.0887 5.13353 15.9244 5.25468 15.8032C5.37582 15.6821 5.54013 15.614 5.71145 15.614ZM23.0198 12.9395C25.3553 12.9209 27.6897 13.0475 30.0095 13.3185C30.0378 13.5399 30.0493 13.763 30.0439 13.9861C30.0439 15.8136 29.318 17.5663 28.0257 18.8585C26.7335 20.1508 24.9808 20.8767 23.1533 20.8767C21.3258 20.8767 19.5732 20.1508 18.2809 18.8585C16.9887 17.5663 16.2627 15.8136 16.2627 13.9861C16.2569 13.7502 16.2684 13.5141 16.2971 13.2798C18.5298 13.0393 20.7743 12.9257 23.0198 12.9395ZM19.9061 2.78884C21.7364 2.78884 22.1025 3.26269 23.2007 3.26269C24.2989 3.26269 24.6649 2.78884 26.4952 2.78884C28.2308 2.78884 29.0534 6.57006 29.3204 8.69755C33.7821 10.0369 35.2937 11.1652 35.2808 12.0781C35.2808 13.9861 34.3376 11.6474 23.0069 11.6474C11.5124 11.6474 10.7329 13.9861 10.7329 12.0781C10.7329 11.161 12.2747 10.0195 16.7622 8.68017C17.1283 6.54844 18.1834 2.78884 19.9061 2.78884Z" fill="white"/>
</svg>
