<svg width="21" height="17" viewBox="0 0 21 17" fill="none" xmlns="http://www.w3.org/2000/svg">
<path d="M10.5009 4.50701C10.5706 4.43732 10.6751 4.40247 10.7796 4.40247C10.8493 4.40247 10.9538 4.43732 11.0235 4.50701L17.4698 9.76854V15.4831C17.4698 15.7967 17.191 16.0406 16.9123 16.0406H12.9748C12.6961 16.0406 12.4173 15.7967 12.4173 15.4831V12.138C12.4173 11.8592 12.1734 11.5805 11.8598 11.5805H9.62975C9.351 11.5805 9.07224 11.8592 9.07224 12.138V15.4831C9.07224 15.7967 8.82833 16.0406 8.54957 16.0406H4.64698C4.33338 16.0406 4.08946 15.7967 4.08946 15.4831V9.80338L10.5009 4.50701ZM20.6406 8.096C20.7452 8.16569 20.8149 8.30507 20.8149 8.4096C20.8149 8.51413 20.78 8.61867 20.7103 8.68836L19.8044 9.76854C19.7347 9.87307 19.6301 9.90792 19.4908 9.90792C19.3862 9.90792 19.2817 9.87307 19.212 9.80338L11.0235 3.07838C10.9538 3.00869 10.8493 2.97385 10.7796 2.97385C10.6751 2.97385 10.5706 3.00869 10.5009 3.07838L2.31239 9.80338C2.2427 9.87307 2.13817 9.90792 2.03363 9.90792C1.89426 9.90792 1.78972 9.87307 1.72003 9.76854L0.814074 8.68836C0.779229 8.61867 0.70954 8.51413 0.70954 8.4096C0.70954 8.30507 0.779229 8.16569 0.883763 8.096L9.69944 0.813482C9.9782 0.604414 10.3615 0.465036 10.7796 0.465036C11.1629 0.465036 11.5462 0.604414 11.825 0.813482L14.961 3.39198V0.883171C14.961 0.639259 15.1352 0.465036 15.3791 0.465036H17.3304C17.5395 0.465036 17.7485 0.639259 17.7485 0.883171V5.69172L20.6406 8.096Z" fill="#01210F"/>
</svg>
