<svg width="44" height="43" viewBox="0 0 44 43" fill="none" xmlns="http://www.w3.org/2000/svg">
<ellipse cx="21.7751" cy="21.2839" rx="21.5434" ry="21.2839" fill="#146A3A"/>
<path d="M24.6563 14.4329L28.7102 18.4379M13.0015 29.9524H17.0553L30.2304 16.9361C30.768 16.405 31.07 15.6846 31.07 14.9335C31.07 14.1825 30.768 13.4621 30.2304 12.931C29.6928 12.3999 28.9637 12.1016 28.2035 12.1016C27.4432 12.1016 26.7141 12.3999 26.1765 12.931L13.0015 25.9474V29.9524Z" stroke="white" stroke-width="2.40302" stroke-linecap="round" stroke-linejoin="round"/>
<path d="M22.1227 16.936L17.0553 11.9297L13.0015 15.9347L18.0688 20.941M17.0553 16.936L15.5351 18.4379M26.1765 20.941L31.2439 25.9473L27.19 29.9523L22.1227 24.946M26.1765 25.9473L24.6563 27.4492" stroke="white" stroke-width="2.40302" stroke-linecap="round" stroke-linejoin="round"/>
</svg>
