<svg width="44" height="43" viewBox="0 0 44 43" fill="none" xmlns="http://www.w3.org/2000/svg">
<ellipse cx="22.0925" cy="21.2839" rx="21.5434" ry="21.2839" fill="#146A3A"/>
<g clip-path="url(#clip0_12_797)">
<path d="M12.9708 9.26855C11.2925 9.26855 9.93042 10.6142 9.93042 12.2723V15.0646C9.93107 15.7071 10.1055 16.3376 10.4356 16.8911C10.7658 17.4446 11.2396 17.9008 11.8082 18.2126L18.8035 22.055C17.3383 22.7858 16.1652 23.9833 15.4739 25.454C14.7826 26.9248 14.6133 28.5828 14.9935 30.1603C15.3737 31.7378 16.2811 33.1426 17.5692 34.1477C18.8572 35.1528 20.4507 35.6995 22.092 35.6995C23.7334 35.6995 25.3268 35.1528 26.6149 34.1477C27.9029 33.1426 28.8103 31.7378 29.1905 30.1603C29.5707 28.5828 29.4015 26.9248 28.7102 25.454C28.0188 23.9833 26.8458 22.7858 25.3805 22.055L32.3783 18.215C32.9468 17.9027 33.4204 17.4459 33.7501 16.892C34.0798 16.3381 34.2537 15.7072 34.2536 15.0646V12.2723C34.2536 10.6142 32.8915 9.26855 31.2132 9.26855H12.9708ZM12.3627 12.2723C12.3627 12.113 12.4268 11.9602 12.5408 11.8475C12.6549 11.7349 12.8095 11.6716 12.9708 11.6716H17.2274V18.4409L12.9878 16.1147C12.7984 16.0106 12.6405 15.8584 12.5306 15.6738C12.4207 15.4891 12.3627 15.2788 12.3627 15.0646V12.2723ZM19.6597 19.7745V11.6716H24.5243V19.7745L22.092 21.1106L19.6597 19.7745ZM26.9567 18.4409V11.6716H31.2132C31.3745 11.6716 31.5292 11.7349 31.6432 11.8475C31.7572 11.9602 31.8213 12.113 31.8213 12.2723V15.0646C31.8213 15.2788 31.7634 15.4891 31.6535 15.6738C31.5436 15.8584 31.3857 16.0106 31.1962 16.1147L26.9567 18.4409ZM26.9567 28.4927C26.9567 29.7673 26.4441 30.9898 25.5318 31.8911C24.6196 32.7924 23.3822 33.2987 22.092 33.2987C20.8018 33.2987 19.5645 32.7924 18.6522 31.8911C17.7399 30.9898 17.2274 29.7673 17.2274 28.4927C17.2274 27.218 17.7399 25.9956 18.6522 25.0943C19.5645 24.193 20.8018 23.6867 22.092 23.6867C23.3822 23.6867 24.6196 24.193 25.5318 25.0943C26.4441 25.9956 26.9567 27.218 26.9567 28.4927Z" fill="white"/>
</g>
<defs>
<clipPath id="clip0_12_797">
<rect width="29.1879" height="28.8362" fill="white" transform="translate(7.49878 6.86523)"/>
</clipPath>
</defs>
</svg>
