<svg width="44" height="43" viewBox="0 0 44 43" fill="none" xmlns="http://www.w3.org/2000/svg">
<ellipse cx="21.7751" cy="21.2839" rx="21.5434" ry="21.2839" fill="#146A3A"/>
<g clip-path="url(#clip0_12_786)">
<path d="M35.2847 22.3463C35.0789 24.9014 34.135 27.3445 32.5651 29.3852C30.9953 31.4259 28.8655 32.9785 26.4288 33.8586C23.9921 34.7387 21.3508 34.9092 18.8189 34.3499C16.287 33.7906 13.9708 32.525 12.1455 30.7035C10.3202 28.882 9.0625 26.5811 8.52186 24.0741C7.98122 21.5672 8.18036 18.9597 9.0956 16.5613C10.0108 14.1629 11.6037 12.0745 13.685 10.5441C15.7663 9.01379 18.2485 8.10586 20.8367 7.92822" stroke="white" stroke-width="2.05973" stroke-linecap="round" stroke-linejoin="round"/>
<path d="M27.5914 23.5284C27.2149 24.4857 26.6028 25.3353 25.8104 26.0002C25.0181 26.6651 24.0705 27.1244 23.0533 27.3365C22.0361 27.5487 20.9815 27.507 19.9847 27.2152C18.9879 26.9235 18.0805 26.3909 17.3444 25.6655C16.6084 24.9402 16.067 24.0451 15.7691 23.0611C15.4712 22.0771 15.4263 21.0352 15.6384 20.0298C15.8505 19.0243 16.313 18.0869 16.984 17.3024C17.6549 16.5179 18.5133 15.911 19.4813 15.5366M21.7746 21.2833L26.9868 16.1339M26.9868 16.1339L31.1565 17.1638L35.3261 13.0443L31.1565 12.0145L30.114 7.89502L25.9443 12.0145L26.9868 16.1339Z" stroke="white" stroke-width="2.05973" stroke-linecap="round" stroke-linejoin="round"/>
</g>
<defs>
<clipPath id="clip0_12_786">
<rect width="29.1879" height="28.8362" fill="white" transform="translate(7.18091 6.86523)"/>
</clipPath>
</defs>
</svg>
