<svg width="44" height="43" viewBox="0 0 44 43" fill="none" xmlns="http://www.w3.org/2000/svg">
<ellipse cx="22.0925" cy="21.2839" rx="21.5434" ry="21.2839" fill="#146A3A"/>
<path d="M20.6633 26.4805L26.2577 21.5543C26.4401 21.3941 26.4908 21.2038 26.4097 20.9836C26.3286 20.7633 26.1665 20.6331 25.9232 20.5931L21.5451 20.1725L24.1598 16.5981C24.2206 16.4979 24.2563 16.4026 24.2668 16.3121C24.2774 16.2216 24.2417 16.1367 24.1598 16.0574C24.0787 15.9573 23.9774 15.9124 23.8558 15.9228C23.7341 15.9332 23.6227 15.9781 23.5213 16.0574L17.9574 20.9836C17.775 21.1438 17.7243 21.334 17.8054 21.5543C17.8864 21.7746 18.0486 21.9047 18.2918 21.9448L22.67 22.3653L20.0249 25.9398C19.964 26.0399 19.9336 26.1348 19.9336 26.2245C19.9336 26.3143 19.9742 26.3996 20.0553 26.4805C20.1363 26.5614 20.2328 26.6014 20.3447 26.6006C20.4566 26.5998 20.5628 26.5598 20.6633 26.4805ZM22.0923 30.896C20.9572 30.896 19.8882 30.7206 18.8853 30.3697C17.8824 30.0189 16.965 29.5235 16.1331 28.8835L14.4609 30.5356C14.3393 30.6557 14.2027 30.7458 14.0511 30.8059C13.8995 30.866 13.7422 30.896 13.5792 30.896C13.2346 30.896 12.946 30.7807 12.7133 30.55C12.4806 30.3193 12.3638 30.0341 12.363 29.6945C12.363 29.5343 12.3934 29.3793 12.4542 29.2295C12.5151 29.0797 12.6063 28.9444 12.7279 28.8234L14.4001 27.1713C13.7515 26.3503 13.25 25.4444 12.8957 24.4535C12.5414 23.4627 12.3638 22.4061 12.363 21.2839C12.363 18.6006 13.3056 16.3277 15.1906 14.4654C17.0757 12.603 19.3762 11.6719 22.0923 11.6719H31.8216V21.2839C31.8216 23.9673 30.8791 26.2402 28.994 28.1025C27.109 29.9648 24.8084 30.896 22.0923 30.896Z" fill="white"/>
</svg>
